PathFileType  4	(X/Y/Z) C:\Users\antoi\Documents\MyRepositories\mobilecap\ResultsAnalysis
DataRate	CameraRate	NumFrames	NumMarkers	Units	OrigDataRate	OrigDataStartFrame	OrigNumFrames
100.0	100.0	6	51	mm	100.0	71	140
Frame#	Time	r_knee			r_shank_antsup			r_ankle			r_calc			r_5meta			r_toe			L_knee			L_shank_antsup			L_ankle			L_calc			L_5meta			L_toe			r_sh2			r_sh3			r_sh4			L_sh2			L_sh3			r_thigh1			r_thigh2			r_thigh3			r_thigh4			r_thigh5			L_thigh1			L_thigh2			L_thigh3			L_thigh4			r.ASIS			r.PSIS			L.ASIS			L.PSIS			C7			R_Shoulder			L_Shoulder			R_Sternum			L_Sternum			R_humerus			R_elbow_med			R_elbow_lat			R_forearm			R_wrist_radius			R_wrist_ulna			L_humerus			L_elbow_med			L_elbow_lat			L_forearm			L_wrist_radius			L_wrist_ulna			R_HJC			L_HJC			R_HJC_reg			L_HJC_reg			
		X1	Y1	Z1	X2	Y2	Z2	X3	Y3	Z3	X4	Y4	Z4	X5	Y5	Z5	X6	Y6	Z6	X7	Y7	Z7	X8	Y8	Z8	X9	Y9	Z9	X10	Y10	Z10	X11	Y11	Z11	X12	Y12	Z12	X13	Y13	Z13	X14	Y14	Z14	X15	Y15	Z15	X16	Y16	Z16	X17	Y17	Z17	X18	Y18	Z18	X19	Y19	Z19	X20	Y20	Z20	X21	Y21	Z21	X22	Y22	Z22	X23	Y23	Z23	X24	Y24	Z24	X25	Y25	Z25	X26	Y26	Z26	X27	Y27	Z27	X28	Y28	Z28	X29	Y29	Z29	X30	Y30	Z30	X31	Y31	Z31	X32	Y32	Z32	X33	Y33	Z33	X34	Y34	Z34	X35	Y35	Z35	X36	Y36	Z36	X37	Y37	Z37	X38	Y38	Z38	X39	Y39	Z39	X40	Y40	Z40	X41	Y41	Z41	X42	Y42	Z42	X43	Y43	Z43	X44	Y44	Z44	X45	Y45	Z45	X46	Y46	Z46	X47	Y47	Z47	X48	Y48	Z48	X49	Y49	Z49	X50	Y50	Z50	X51	Y51	Z51	

71	0.70000000	654.33745	499.08516	-24.68533	615.88712	402.23544	-44.62662	331.95293	247.85563	-137.31827	262.32411	288.82754	-206.50221	311.22026	105.41459	-105.75839	382.46291	74.27191	-152.37817	815.42744	539.41061	-385.03981	829.18014	449.17648	-404.92053	844.43702	116.67712	-341.89289	775.34032	71.19533	-280.60308	960.93372	49.48489	-379.66557	1023.19626	82.78164	-322.62912	519.86363	341.54803	-46.51907	577.61989	458.12881	-10.19564	472.90454	411.12352	-32.59229	741.48971	444.36348	-384.10574	764.26395	325.29135	-376.93751	726.79320	826.70058	-15.55784	735.15573	716.98499	-9.60578	675.42385	688.75861	13.49791	615.19728	817.78769	2.43701	625.66283	703.49741	-3.58022	767.71396	842.39318	-382.57006	835.28394	718.53540	-379.90242	673.78962	789.05750	-401.09653	734.30043	667.30574	-399.21235	727.11980	1045.85910	-67.74594	545.85552	1052.87577	-127.12534	724.84592	1030.88433	-319.10958	538.90887	1047.43238	-237.91238	693.36960	1527.34726	-413.95063	800.00085	1525.02218	-250.23092	678.31647	1367.36217	-527.59429	790.24285	1423.10179	-362.89459	771.61647	1393.63519	-406.33673	775.30878	1418.24125	-113.09512	623.88409	1272.04959	-42.06653	668.23267	1318.69635	20.21131	748.11725	1169.47785	70.83791	797.18721	1084.88035	71.82062	768.62399	1095.47321	107.01466	603.90013	1238.10666	-530.57591	499.60899	1091.74277	-361.81448	478.58101	1075.14380	-440.04552	476.41577	998.83211	-446.78884	443.20766	828.94499	-394.99279	404.01553	843.89339	-391.26095	651.82043	927.33137	-77.54412	639.48039	921.90759	-284.07055	672.87447	959.79190	-95.54983	662.48180	951.65626	-261.22866	
72	0.71000000	679.53898	501.29433	-23.97241	641.02967	405.26009	-43.42055	354.73684	255.91630	-137.73875	290.37410	301.31196	-208.75708	325.22256	114.54015	-106.53856	396.20232	78.83213	-150.71206	821.26471	539.29451	-388.20960	834.76419	448.92326	-407.88557	844.81146	116.49134	-342.13864	775.52387	71.26215	-280.58949	960.86518	49.30172	-379.99469	1023.38765	81.92178	-322.75073	544.15568	345.99917	-45.62673	603.11967	462.20751	-9.84926	497.99103	416.44034	-32.57679	746.91868	445.60314	-387.37572	767.86601	326.30624	-379.18009	741.52582	829.81706	-16.68039	753.05622	720.61520	-9.64343	694.01917	691.28554	13.29478	630.34356	818.31114	0.10493	644.04077	704.19194	-4.45673	776.20335	842.27849	-387.90859	842.62263	717.92613	-385.42204	681.43083	790.01816	-403.63292	740.67690	667.68799	-402.08337	739.14568	1047.27236	-70.76004	557.62606	1054.40221	-129.39296	736.06741	1032.59605	-322.03319	550.38632	1049.56877	-240.10910	706.89885	1529.89277	-414.36548	813.01962	1526.67890	-250.19630	692.08772	1370.26850	-528.57469	803.51867	1425.22798	-363.34977	785.05379	1396.08612	-407.00528	786.88344	1419.35669	-113.59850	633.46497	1274.12010	-44.76615	677.86747	1319.68537	18.22261	754.71871	1168.88707	69.09589	802.28131	1083.31526	70.19129	773.49073	1094.42832	105.34318	618.92516	1240.36735	-532.51521	516.18144	1091.08213	-365.28382	495.84386	1074.71589	-443.80675	495.34548	998.37092	-451.10300	465.45665	827.35323	-401.02206	425.91913	841.48079	-397.21730	663.64432	928.79805	-80.42048	650.58722	923.77333	-286.91527	684.85578	960.77143	-98.84778	674.02093	953.54719	-264.47294	
73	0.72000000	704.30316	504.55609	-23.67599	666.46865	408.83444	-42.70846	378.26431	263.22223	-138.02832	317.69438	311.15782	-210.49157	342.91852	122.96602	-106.54744	413.66852	83.98478	-148.83754	826.42188	539.10600	-390.98240	839.75047	448.68144	-410.45906	845.10128	116.32426	-342.38517	775.68737	71.31236	-280.59874	960.80829	49.11512	-380.26750	1023.55488	81.25366	-322.88090	569.02419	350.62097	-44.91181	628.90386	466.61055	-9.75512	523.46889	421.69479	-32.46715	751.81505	446.71670	-390.12582	771.11502	327.22530	-381.09472	755.99452	833.33213	-18.00972	770.74069	724.72047	-10.18434	712.57284	694.32885	12.77442	645.36186	819.15948	-2.30058	662.30226	705.33810	-5.67889	784.43494	842.07731	-393.11787	849.43712	717.11111	-390.61552	688.74778	791.08363	-405.90948	746.56121	668.08839	-404.59692	750.92284	1049.02401	-73.57308	569.13997	1056.09791	-131.85680	747.16816	1034.49823	-324.86040	561.66566	1051.84771	-242.47192	720.20229	1532.81151	-414.48769	825.73455	1528.55103	-249.85217	705.58463	1373.67397	-529.40632	816.54186	1427.66164	-363.57147	798.26354	1398.89497	-407.46145	798.22399	1420.56037	-113.90408	642.89113	1276.27731	-47.21253	687.36229	1320.70085	16.44299	761.18006	1168.32315	67.39132	807.24386	1081.84342	68.48249	778.24694	1093.43113	103.58789	633.56726	1243.15158	-534.48032	532.73829	1090.63175	-368.86804	513.07232	1074.55548	-447.67855	514.40657	998.23477	-455.65265	488.39800	826.04563	-407.53469	448.51938	839.23740	-403.59284	675.20852	930.54532	-83.23203	661.66186	925.80162	-289.70168	696.66084	961.96441	-101.97123	685.46425	955.60628	-267.61593	
74	0.73000000	728.68520	508.77897	-23.82048	692.05848	412.90536	-42.52942	402.43605	269.61776	-138.15006	343.69338	318.25650	-211.50128	364.57350	130.20957	-105.78465	435.22312	89.49090	-146.97442	831.10662	538.96493	-393.33471	844.12182	448.49651	-412.60218	845.33410	116.19320	-342.63093	775.80077	71.36859	-280.64065	960.77217	48.92568	-380.48098	1023.71983	80.74353	-323.01097	594.26403	355.39256	-44.48081	654.80943	471.27117	-9.94475	549.14699	426.87321	-32.34369	756.16300	447.76296	-392.20534	773.97338	328.10596	-382.58339	770.33279	837.26685	-19.63881	788.32580	729.27924	-11.27722	731.20785	697.79535	11.93010	660.37435	820.31133	-4.74809	680.54341	706.90816	-7.20434	792.61709	842.02199	-397.86107	855.97867	716.32642	-395.18639	696.00816	792.42484	-408.00794	752.24498	668.68537	-406.82193	762.46229	1051.09242	-76.23919	580.43601	1057.98501	-134.46458	758.13022	1036.63870	-327.60702	572.77195	1054.29386	-244.95975	733.26842	1536.09339	-414.35412	838.13574	1530.65911	-249.23302	718.78462	1377.57391	-530.10304	829.30461	1430.41045	-363.58375	811.23173	1402.05757	-407.72556	809.31882	1421.89781	-114.03623	652.20287	1278.50511	-49.47148	696.72520	1321.75074	14.81892	767.51040	1167.80937	65.71200	812.03200	1080.44815	66.71267	782.92330	1092.52465	101.75316	647.82113	1246.44535	-536.49563	549.28833	1090.43095	-372.54972	530.24362	1074.69827	-451.63775	533.54130	998.45737	-460.40414	511.98970	825.12444	-414.49360	471.84793	837.26541	-410.38451	686.55017	932.56402	-86.00434	672.68628	928.03215	-292.45581	708.28961	963.40424	-104.96599	696.79309	957.87437	-270.67551	
75	0.74000000	752.78726	513.77665	-24.43613	717.68495	417.41075	-42.88508	427.21657	274.91063	-138.02678	368.23785	322.71461	-211.56513	390.08273	135.87560	-104.39060	460.78571	94.99171	-145.38476	835.47682	538.95780	-395.26750	847.89893	448.40500	-414.31394	845.53182	116.11616	-342.86887	775.84959	71.44701	-280.71237	960.75497	48.74744	-380.63631	1023.88227	80.36173	-323.12750	619.72721	360.25794	-44.40356	680.68276	476.12501	-10.45117	574.86783	431.92837	-32.31265	759.97935	448.78696	-393.57064	776.43651	329.00256	-383.60765	784.63298	841.64149	-21.61664	805.86780	734.27579	-12.91499	749.96864	701.60064	10.77180	675.43434	821.76117	-7.21218	698.80659	708.88747	-8.96848	800.92531	842.27646	-401.88827	862.45626	715.74110	-398.93250	703.41833	794.15155	-410.00242	757.93955	669.59349	-408.82227	773.77928	1053.44565	-78.82226	591.55610	1060.08520	-137.14987	768.94893	1039.04752	-330.30311	583.74217	1056.92398	-247.52114	746.08974	1539.72322	-413.99951	850.21659	1533.02069	-248.36853	731.66608	1381.96340	-530.67786	841.80331	1433.48176	-363.40778	823.94746	1405.56853	-407.82097	820.15569	1423.41139	-114.01363	661.42891	1280.78137	-51.60730	705.96325	1322.83653	13.30073	773.72363	1167.37005	64.04541	816.63285	1079.13213	64.89596	787.54422	1091.73940	99.85111	661.72019	1250.22194	-538.57978	565.84489	1090.52083	-376.31652	547.35532	1075.17773	-455.66625	552.71455	999.07166	-465.32355	536.17882	824.68838	-421.85481	495.94165	835.66345	-417.59503	697.71269	934.83835	-88.76054	683.64048	930.49285	-295.19960	719.73482	965.12035	-107.88622	707.99557	960.37603	-273.68145	
76	0.75000000	776.68807	519.32807	-25.53844	743.28421	422.28366	-43.75447	452.61682	278.89739	-137.57186	391.63124	324.78186	-210.53079	418.96910	139.70948	-102.61105	489.83171	100.05758	-144.30335	839.62417	539.12439	-396.79836	851.14121	448.42834	-415.62115	845.71075	116.10567	-343.08890	775.83368	71.55197	-280.80213	960.74870	48.59582	-380.73813	1024.03029	80.08285	-323.21845	645.35068	365.11326	-44.69298	706.41090	481.09544	-11.29888	600.53418	436.75920	-32.46813	763.31551	449.81416	-394.28460	778.53863	329.94917	-384.19241	798.93359	846.45459	-23.94320	823.36386	739.69599	-15.05377	768.82457	705.69901	9.31013	690.53357	823.51408	-9.67489	717.09282	711.27062	-10.90291	809.47144	842.90559	-405.07895	869.00501	715.43059	-401.77118	711.09742	796.29028	-411.94603	763.76297	670.85017	-410.64444	784.89232	1056.04974	-81.37789	602.54157	1062.41580	-139.84360	779.63990	1041.72871	-332.97599	594.62003	1059.74404	-250.10457	758.66349	1543.67748	-413.45410	861.97274	1535.64600	-247.28513	744.22678	1386.82945	-531.14503	854.04156	1436.87819	-363.06261	836.40487	1409.41694	-407.77319	830.72496	1425.13170	-113.85234	670.58609	1283.08245	-53.67633	715.08061	1323.95426	11.84575	779.84022	1167.02677	62.37971	821.07364	1077.91789	63.04202	792.12520	1091.08916	97.89935	675.32737	1254.44898	-540.73948	582.42640	1090.93987	-380.16115	564.42029	1076.02392	-459.75060	571.91747	1000.11613	-470.38090	560.90429	824.83074	-429.56886	520.80701	834.52005	-425.21116	708.73820	937.35075	-91.50973	694.51234	933.19276	-297.94021	730.99051	967.13297	-110.77622	719.07253	963.11591	-276.65841	
